<svg aria-hidden="true" style="position:absolute;width:200;height:300;overflow:hidden" xmlns="http://www.w3.org/2000/svg"><defs><symbol id="icon-chat" viewBox="0 0 32 32"><path style="fill:var(--color1, #000)" d="M21.273 10.258A10.527 10.527 0 0 1 31.998 20.61c.017.858-.069 1.693-.246 2.494-.299 1.356-.477 2.736-.477 4.125v2.684a.745.745 0 0 1-.745.745h-2.684c-1.389 0-2.769.178-4.125.477-.801.177-1.636.262-2.494.246a10.526 10.526 0 0 1-10.352-10.725c.087-5.703 4.694-10.31 10.397-10.397z"/><path style="fill:var(--color1, #000)" d="M21.273 10.258A10.527 10.527 0 0 1 31.998 20.61c.017.858-.069 1.693-.246 2.494-.299 1.356-.477 2.736-.477 4.125v2.684a.745.745 0 0 1-.745.745h-2.684c-1.389 0-2.769.178-4.125.477-.801.177-1.636.262-2.494.246a10.526 10.526 0 0 1-10.352-10.725c.087-5.703 4.694-10.31 10.397-10.397z"/><path style="fill:var(--color1, #000)" d="M13.069.619A12.825 12.825 0 0 0 .003 13.231c-.02 1.045.084 2.062.299 3.038.364 1.652.581 3.333.581 5.025v3.27c0 .501.406.907.907.907h3.27c1.692 0 3.373.217 5.025.581a12.9 12.9 0 0 0 3.038.299 12.825 12.825 0 0 0 12.612-13.066C25.629 6.337 20.017.725 13.069.619z"/><path style="fill:var(--color1, #000)" d="M8.262 12.796a1.993 1.993 0 1 0-2.814 2.814l4.3 4.3a1.993 1.993 0 1 0 2.814-2.814l-4.3-4.3z"/><path fill="#fff" style="fill:var(--color2, #fff)" d="M8.805 14.16a1.993 1.993 0 1 1-3.985 0 1.993 1.993 0 0 1 3.985 0z"/><path style="fill:var(--color1, #000)" d="M13.899 12.796a1.993 1.993 0 1 0-2.814 2.814l4.3 4.3a1.993 1.993 0 1 0 2.814-2.814l-4.3-4.3z"/><path fill="#fff" style="fill:var(--color2, #fff)" d="M14.442 14.16a1.993 1.993 0 1 1-3.985 0 1.993 1.993 0 0 1 3.985 0z"/><path style="fill:var(--color1, #000)" d="M19.536 12.796a1.993 1.993 0 1 0-2.814 2.814l4.3 4.3a1.993 1.993 0 1 0 2.814-2.814l-4.3-4.3z"/><path fill="#fff" style="fill:var(--color2, #fff)" d="M20.079 14.16a1.993 1.993 0 1 1-3.985 0 1.993 1.993 0 0 1 3.985 0z"/></symbol><symbol id="icon-download-file" viewBox="0 0 32 32"><path fill="#ef5261" style="fill:var(--color3, #ef5261)" d="M32 16c0 8.837-7.163 16-16 16S0 24.837 0 16 7.163 0 16 0s16 7.163 16 16z"/><path fill="#eeefee" style="fill:var(--color4, #eeefee)" d="M27.166 15.713a3.332 3.332 0 0 1-3.332 3.325h-.038.002H8.116a3.32 3.32 0 0 1-3.283-3.318v-.008a3.285 3.285 0 0 1 2.884-3.26l.016-.002a2.738 2.738 0 0 1-.355-1.356v-.012a2.815 2.815 0 0 1 4.837-1.958l.001.001a3.883 3.883 0 0 1 3.729-2.821 3.875 3.875 0 0 1 3.789 3.06l.005.025a2.675 2.675 0 0 1 3.971 2.977l.004-.019c.027-.002.058-.002.085-.002a3.367 3.367 0 0 1 3.367 3.367z"/><path fill="#f6c863" style="fill:var(--color5, #f6c863)" d="m19.574 21.192-3.573 4.5-3.575-4.5h1.814v-6.219h3.458v6.219z"/></symbol><symbol id="icon-eye" viewBox="0 0 32 32"><path fill="#fec753" style="fill:var(--color6, #fec753)" d="M31.328 16c0 8.457-6.856 15.313-15.313 15.313S.702 24.457.702 16 7.558.687 16.015.687 31.328 7.543 31.328 16z"/><path fill="#35528c" style="fill:var(--color7, #35528c)" d="M16 6.592c-7.702 0-14.15 6.946-15.814 8.901a.782.782 0 0 0 0 1.014C1.849 18.463 8.298 25.408 16 25.408s14.15-6.946 15.814-8.901a.782.782 0 0 0 0-1.014C30.151 13.537 23.702 6.592 16 6.592z"/><path fill="#1f3a60" style="fill:var(--color8, #1f3a60)" d="M2.623 16c0-1.52 5.989-9.408 13.377-9.408-7.639 0-14.045 6.833-15.772 8.852a.855.855 0 0 0 0 1.112c1.727 2.02 8.133 8.852 15.772 8.852-7.388 0-13.377-7.889-13.377-9.408z"/><path fill="#99d3ff" style="fill:var(--color9, #99d3ff)" d="M24.25 16a8.25 8.25 0 1 1-16.5 0 8.25 8.25 0 0 1 16.5 0z"/><path fill="#5bb3ce" style="fill:var(--color10, #5bb3ce)" d="M11 16c0-4 2.847-7.335 6.625-8.09a8.25 8.25 0 1 0 0 16.18A8.253 8.253 0 0 1 11 16z"/><path fill="#1f3a60" style="fill:var(--color8, #1f3a60)" d="M20.013 16a4.1 4.1 0 1 1-8.2 0 4.1 4.1 0 0 1 8.2 0z"/><path fill="#dcf3ff" style="fill:var(--color11, #dcf3ff)" d="M21 14.102a1.746 1.746 0 1 1-3.493 0 1.746 1.746 0 0 1 3.493 0z"/></symbol><symbol id="icon-heart" viewBox="0 0 32 32"><path fill="#d7443e" style="fill:var(--color12, #d7443e)" d="M23.296 2.901A8.747 8.747 0 0 1 32 11.605c0 8.789-16 17.493-16 17.493S0 20.266 0 11.605a8.704 8.704 0 0 1 8.704-8.704A8.618 8.618 0 0 1 16 6.826a8.704 8.704 0 0 1 7.296-3.925z"/></symbol></defs></svg>